<mxfile host="app.diagrams.net" agent="5.0" version="24.7.17">
  <diagram name="Sequence Diagram" id="sequence-diagram-clean">
    <mxGraphModel dx="1422" dy="754" grid="1" gridSize="10" guides="1" tooltips="1" connect="1" arrows="1" fold="1" page="1" pageScale="1" pageWidth="1169" pageHeight="1654" math="0" shadow="0">
      <root>
        <mxCell id="0" />
        <mxCell id="1" parent="0" />
        
        <!-- Title -->
        <mxCell id="title" value="Sequence Diagram - Algorithm Visualization Process" style="text;html=1;align=center;verticalAlign=middle;whiteSpace=wrap;rounded=0;fontSize=18;fontStyle=1" vertex="1" parent="1">
          <mxGeometry x="234" y="30" width="700" height="30" as="geometry" />
        </mxCell>

        <!-- Actors -->
        <mxCell id="student" value="Student&#xa;User" style="shape=umlActor;verticalLabelPosition=bottom;verticalAlign=top;html=1;outlineConnect=0;fontSize=12;fillColor=#e1d5e7;strokeColor=#9673a6" vertex="1" parent="1">
          <mxGeometry x="80" y="100" width="60" height="120" as="geometry" />
        </mxCell>

        <mxCell id="react-ui" value="React&#xa;UI" style="rounded=1;whiteSpace=wrap;html=1;fontSize=12;fillColor=#d5e8d4;strokeColor=#82b366;fontStyle=1" vertex="1" parent="1">
          <mxGeometry x="230" y="160" width="120" height="40" as="geometry" />
        </mxCell>

        <mxCell id="visualizer" value="Algorithm&#xa;Visualizer" style="rounded=1;whiteSpace=wrap;html=1;fontSize=12;fillColor=#fff2cc;strokeColor=#d6b656;fontStyle=1" vertex="1" parent="1">
          <mxGeometry x="420" y="160" width="120" height="40" as="geometry" />
        </mxCell>

        <mxCell id="ai-assistant" value="AI&#xa;Assistant" style="rounded=1;whiteSpace=wrap;html=1;fontSize=12;fillColor=#f8cecc;strokeColor=#b85450;fontStyle=1" vertex="1" parent="1">
          <mxGeometry x="610" y="160" width="120" height="40" as="geometry" />
        </mxCell>

        <mxCell id="database" value="Database&#xa;Layer" style="rounded=1;whiteSpace=wrap;html=1;fontSize=12;fillColor=#dae8fc;strokeColor=#6c8ebf;fontStyle=1" vertex="1" parent="1">
          <mxGeometry x="800" y="160" width="120" height="40" as="geometry" />
        </mxCell>

        <!-- Lifelines -->
        <mxCell id="lifeline-student" value="" style="shape=line;strokeWidth=2;html=1;strokeColor=#999999;fillColor=none;dashed=1;dashPattern=5 5;direction=south" vertex="1" parent="1">
          <mxGeometry x="110" y="220" width="0" height="1200" as="geometry" />
        </mxCell>

        <mxCell id="lifeline-ui" value="" style="shape=line;strokeWidth=2;html=1;strokeColor=#999999;fillColor=none;dashed=1;dashPattern=5 5;direction=south" vertex="1" parent="1">
          <mxGeometry x="290" y="200" width="0" height="1220" as="geometry" />
        </mxCell>

        <mxCell id="lifeline-visualizer" value="" style="shape=line;strokeWidth=2;html=1;strokeColor=#999999;fillColor=none;dashed=1;dashPattern=5 5;direction=south" vertex="1" parent="1">
          <mxGeometry x="480" y="200" width="0" height="1220" as="geometry" />
        </mxCell>

        <mxCell id="lifeline-ai" value="" style="shape=line;strokeWidth=2;html=1;strokeColor=#999999;fillColor=none;dashed=1;dashPattern=5 5;direction=south" vertex="1" parent="1">
          <mxGeometry x="670" y="200" width="0" height="1220" as="geometry" />
        </mxCell>

        <mxCell id="lifeline-db" value="" style="shape=line;strokeWidth=2;html=1;strokeColor=#999999;fillColor=none;dashed=1;dashPattern=5 5;direction=south" vertex="1" parent="1">
          <mxGeometry x="860" y="200" width="0" height="1220" as="geometry" />
        </mxCell>

        <!-- Activation Boxes -->
        <mxCell id="activation-ui-1" value="" style="rounded=0;whiteSpace=wrap;html=1;fillColor=#ffffff;strokeColor=#000000" vertex="1" parent="1">
          <mxGeometry x="285" y="250" width="10" height="50" as="geometry" />
        </mxCell>

        <mxCell id="activation-vis-1" value="" style="rounded=0;whiteSpace=wrap;html=1;fillColor=#ffffff;strokeColor=#000000" vertex="1" parent="1">
          <mxGeometry x="475" y="320" width="10" height="60" as="geometry" />
        </mxCell>

        <mxCell id="activation-ai-1" value="" style="rounded=0;whiteSpace=wrap;html=1;fillColor=#ffffff;strokeColor=#000000" vertex="1" parent="1">
          <mxGeometry x="665" y="390" width="10" height="40" as="geometry" />
        </mxCell>

        <mxCell id="activation-vis-2" value="" style="rounded=0;whiteSpace=wrap;html=1;fillColor=#ffffff;strokeColor=#000000" vertex="1" parent="1">
          <mxGeometry x="475" y="480" width="10" height="40" as="geometry" />
        </mxCell>

        <mxCell id="activation-ui-2" value="" style="rounded=0;whiteSpace=wrap;html=1;fillColor=#ffffff;strokeColor=#000000" vertex="1" parent="1">
          <mxGeometry x="285" y="550" width="10" height="50" as="geometry" />
        </mxCell>

        <mxCell id="activation-vis-3" value="" style="rounded=0;whiteSpace=wrap;html=1;fillColor=#ffffff;strokeColor=#000000" vertex="1" parent="1">
          <mxGeometry x="475" y="630" width="10" height="80" as="geometry" />
        </mxCell>

        <mxCell id="activation-ai-2" value="" style="rounded=0;whiteSpace=wrap;html=1;fillColor=#ffffff;strokeColor=#000000" vertex="1" parent="1">
          <mxGeometry x="665" y="730" width="10" height="40" as="geometry" />
        </mxCell>

        <mxCell id="activation-db-1" value="" style="rounded=0;whiteSpace=wrap;html=1;fillColor=#ffffff;strokeColor=#000000" vertex="1" parent="1">
          <mxGeometry x="855" y="800" width="10" height="40" as="geometry" />
        </mxCell>

        <mxCell id="activation-vis-4" value="" style="rounded=0;whiteSpace=wrap;html=1;fillColor=#ffffff;strokeColor=#000000" vertex="1" parent="1">
          <mxGeometry x="475" y="870" width="10" height="40" as="geometry" />
        </mxCell>

        <mxCell id="activation-ui-3" value="" style="rounded=0;whiteSpace=wrap;html=1;fillColor=#ffffff;strokeColor=#000000" vertex="1" parent="1">
          <mxGeometry x="285" y="940" width="10" height="40" as="geometry" />
        </mxCell>

        <mxCell id="activation-ui-4" value="" style="rounded=0;whiteSpace=wrap;html=1;fillColor=#ffffff;strokeColor=#000000" vertex="1" parent="1">
          <mxGeometry x="285" y="1020" width="10" height="50" as="geometry" />
        </mxCell>

        <mxCell id="activation-vis-5" value="" style="rounded=0;whiteSpace=wrap;html=1;fillColor=#ffffff;strokeColor=#000000" vertex="1" parent="1">
          <mxGeometry x="475" y="1100" width="10" height="60" as="geometry" />
        </mxCell>

        <mxCell id="activation-vis-6" value="" style="rounded=0;whiteSpace=wrap;html=1;fillColor=#ffffff;strokeColor=#000000" vertex="1" parent="1">
          <mxGeometry x="475" y="1200" width="10" height="40" as="geometry" />
        </mxCell>

        <mxCell id="activation-ui-5" value="" style="rounded=0;whiteSpace=wrap;html=1;fillColor=#ffffff;strokeColor=#000000" vertex="1" parent="1">
          <mxGeometry x="285" y="1280" width="10" height="40" as="geometry" />
        </mxCell>

        <!-- Messages -->
        <!-- 1. Select Algorithm -->
        <mxCell id="msg1" style="endArrow=classic;html=1;rounded=0;fontSize=10" edge="1" parent="1">
          <mxGeometry width="50" height="50" relative="1" as="geometry">
            <mxPoint x="110" y="260" as="sourcePoint" />
            <mxPoint x="285" y="260" as="targetPoint" />
          </mxGeometry>
        </mxCell>

        <mxCell id="msg1-label" value="1: selectAlgorithm(&quot;QuickSort&quot;)" style="text;html=1;align=center;verticalAlign=middle;whiteSpace=wrap;rounded=0;fontSize=9" vertex="1" parent="1">
          <mxGeometry x="140" y="240" width="120" height="20" as="geometry" />
        </mxCell>

        <!-- 2. Initialize Visualizer -->
        <mxCell id="msg2" style="endArrow=classic;html=1;rounded=0;fontSize=10" edge="1" parent="1">
          <mxGeometry width="50" height="50" relative="1" as="geometry">
            <mxPoint x="290" y="330" as="sourcePoint" />
            <mxPoint x="475" y="330" as="targetPoint" />
          </mxGeometry>
        </mxCell>

        <mxCell id="msg2-label" value="2: initializeVisualizer(algorithmType)" style="text;html=1;align=center;verticalAlign=middle;whiteSpace=wrap;rounded=0;fontSize=9" vertex="1" parent="1">
          <mxGeometry x="310" y="310" width="140" height="20" as="geometry" />
        </mxCell>

        <!-- 3. Request Explanation -->
        <mxCell id="msg3" style="endArrow=classic;html=1;rounded=0;fontSize=10" edge="1" parent="1">
          <mxGeometry width="50" height="50" relative="1" as="geometry">
            <mxPoint x="480" y="400" as="sourcePoint" />
            <mxPoint x="665" y="400" as="targetPoint" />
          </mxGeometry>
        </mxCell>

        <mxCell id="msg3-label" value="3: requestExplanation(algorithm)" style="text;html=1;align=center;verticalAlign=middle;whiteSpace=wrap;rounded=0;fontSize=9" vertex="1" parent="1">
          <mxGeometry x="500" y="380" width="140" height="20" as="geometry" />
        </mxCell>

        <!-- 4. Return Explanation -->
        <mxCell id="msg4" style="endArrow=classic;html=1;rounded=0;fontSize=10;dashed=1" edge="1" parent="1">
          <mxGeometry width="50" height="50" relative="1" as="geometry">
            <mxPoint x="670" y="440" as="sourcePoint" />
            <mxPoint x="485" y="440" as="targetPoint" />
          </mxGeometry>
        </mxCell>

        <mxCell id="msg4-label" value="4: return explanationData" style="text;html=1;align=center;verticalAlign=middle;whiteSpace=wrap;rounded=0;fontSize=9" vertex="1" parent="1">
          <mxGeometry x="510" y="450" width="120" height="20" as="geometry" />
        </mxCell>

        <!-- 5. Load Algorithm Steps (Self) -->
        <mxCell id="msg5" style="endArrow=classic;html=1;rounded=0;fontSize=10" edge="1" parent="1">
          <mxGeometry width="50" height="50" relative="1" as="geometry">
            <mxPoint x="485" y="490" as="sourcePoint" />
            <mxPoint x="520" y="490" as="targetPoint" />
          </mxGeometry>
        </mxCell>

        <mxCell id="msg5-return" style="endArrow=classic;html=1;rounded=0;fontSize=10" edge="1" parent="1">
          <mxGeometry width="50" height="50" relative="1" as="geometry">
            <mxPoint x="520" y="510" as="sourcePoint" />
            <mxPoint x="485" y="510" as="targetPoint" />
          </mxGeometry>
        </mxCell>

        <mxCell id="msg5-label" value="5: loadAlgorithmSteps()" style="text;html=1;align=center;verticalAlign=middle;whiteSpace=wrap;rounded=0;fontSize=9" vertex="1" parent="1">
          <mxGeometry x="530" y="480" width="120" height="20" as="geometry" />
        </mxCell>

        <!-- 6. Update Visualization -->
        <mxCell id="msg6" style="endArrow=classic;html=1;rounded=0;fontSize=10;dashed=1" edge="1" parent="1">
          <mxGeometry width="50" height="50" relative="1" as="geometry">
            <mxPoint x="480" y="560" as="sourcePoint" />
            <mxPoint x="295" y="560" as="targetPoint" />
          </mxGeometry>
        </mxCell>

        <mxCell id="msg6-label" value="6: updateVisualization(data)" style="text;html=1;align=center;verticalAlign=middle;whiteSpace=wrap;rounded=0;fontSize=9" vertex="1" parent="1">
          <mxGeometry x="320" y="540" width="130" height="20" as="geometry" />
        </mxCell>

        <!-- 7. Start Visualization -->
        <mxCell id="msg7" style="endArrow=classic;html=1;rounded=0;fontSize=10" edge="1" parent="1">
          <mxGeometry width="50" height="50" relative="1" as="geometry">
            <mxPoint x="110" y="640" as="sourcePoint" />
            <mxPoint x="285" y="640" as="targetPoint" />
          </mxGeometry>
        </mxCell>

        <mxCell id="msg7-label" value="7: startVisualization()" style="text;html=1;align=center;verticalAlign=middle;whiteSpace=wrap;rounded=0;fontSize=9" vertex="1" parent="1">
          <mxGeometry x="150" y="620" width="100" height="20" as="geometry" />
        </mxCell>

        <!-- 8. Begin Animation -->
        <mxCell id="msg8" style="endArrow=classic;html=1;rounded=0;fontSize=10" edge="1" parent="1">
          <mxGeometry width="50" height="50" relative="1" as="geometry">
            <mxPoint x="290" y="680" as="sourcePoint" />
            <mxPoint x="475" y="680" as="targetPoint" />
          </mxGeometry>
        </mxCell>

        <mxCell id="msg8-label" value="8: beginAnimation()" style="text;html=1;align=center;verticalAlign=middle;whiteSpace=wrap;rounded=0;fontSize=9" vertex="1" parent="1">
          <mxGeometry x="330" y="660" width="100" height="20" as="geometry" />
        </mxCell>

        <!-- 9. Explain Current Step -->
        <mxCell id="msg9" style="endArrow=classic;html=1;rounded=0;fontSize=10" edge="1" parent="1">
          <mxGeometry width="50" height="50" relative="1" as="geometry">
            <mxPoint x="480" y="740" as="sourcePoint" />
            <mxPoint x="665" y="740" as="targetPoint" />
          </mxGeometry>
        </mxCell>

        <mxCell id="msg9-label" value="9: explainCurrentStep(stepIndex)" style="text;html=1;align=center;verticalAlign=middle;whiteSpace=wrap;rounded=0;fontSize=9" vertex="1" parent="1">
          <mxGeometry x="500" y="720" width="140" height="20" as="geometry" />
        </mxCell>

        <!-- 10. Return Step Explanation -->
        <mxCell id="msg10" style="endArrow=classic;html=1;rounded=0;fontSize=10;dashed=1" edge="1" parent="1">
          <mxGeometry width="50" height="50" relative="1" as="geometry">
            <mxPoint x="670" y="780" as="sourcePoint" />
            <mxPoint x="485" y="780" as="targetPoint" />
          </mxGeometry>
        </mxCell>

        <mxCell id="msg10-label" value="10: return stepExplanation" style="text;html=1;align=center;verticalAlign=middle;whiteSpace=wrap;rounded=0;fontSize=9" vertex="1" parent="1">
          <mxGeometry x="510" y="790" width="130" height="20" as="geometry" />
        </mxCell>

        <!-- 11. Save Progress -->
        <mxCell id="msg11" style="endArrow=classic;html=1;rounded=0;fontSize=10" edge="1" parent="1">
          <mxGeometry width="50" height="50" relative="1" as="geometry">
            <mxPoint x="480" y="820" as="sourcePoint" />
            <mxPoint x="855" y="820" as="targetPoint" />
          </mxGeometry>
        </mxCell>

        <mxCell id="msg11-label" value="11: saveProgress(userId, stepData)" style="text;html=1;align=center;verticalAlign=middle;whiteSpace=wrap;rounded=0;fontSize=9" vertex="1" parent="1">
          <mxGeometry x="600" y="800" width="160" height="20" as="geometry" />
        </mxCell>

        <!-- 12. Save Confirmation -->
        <mxCell id="msg12" style="endArrow=classic;html=1;rounded=0;fontSize=10;dashed=1" edge="1" parent="1">
          <mxGeometry width="50" height="50" relative="1" as="geometry">
            <mxPoint x="860" y="850" as="sourcePoint" />
            <mxPoint x="485" y="850" as="targetPoint" />
          </mxGeometry>
        </mxCell>

        <mxCell id="msg12-label" value="12: return saveConfirmation" style="text;html=1;align=center;verticalAlign=middle;whiteSpace=wrap;rounded=0;fontSize=9" vertex="1" parent="1">
          <mxGeometry x="600" y="860" width="140" height="20" as="geometry" />
        </mxCell>

        <!-- 13. Complete Animation Step (Self) -->
        <mxCell id="msg13" style="endArrow=classic;html=1;rounded=0;fontSize=10" edge="1" parent="1">
          <mxGeometry width="50" height="50" relative="1" as="geometry">
            <mxPoint x="485" y="880" as="sourcePoint" />
            <mxPoint x="520" y="880" as="targetPoint" />
          </mxGeometry>
        </mxCell>

        <mxCell id="msg13-return" style="endArrow=classic;html=1;rounded=0;fontSize=10" edge="1" parent="1">
          <mxGeometry width="50" height="50" relative="1" as="geometry">
            <mxPoint x="520" y="900" as="sourcePoint" />
            <mxPoint x="485" y="900" as="targetPoint" />
          </mxGeometry>
        </mxCell>

        <mxCell id="msg13-label" value="13: completeAnimationStep()" style="text;html=1;align=center;verticalAlign=middle;whiteSpace=wrap;rounded=0;fontSize=9" vertex="1" parent="1">
          <mxGeometry x="530" y="870" width="140" height="20" as="geometry" />
        </mxCell>

        <!-- 14. Update Step Display -->
        <mxCell id="msg14" style="endArrow=classic;html=1;rounded=0;fontSize=10;dashed=1" edge="1" parent="1">
          <mxGeometry width="50" height="50" relative="1" as="geometry">
            <mxPoint x="480" y="950" as="sourcePoint" />
            <mxPoint x="295" y="950" as="targetPoint" />
          </mxGeometry>
        </mxCell>

        <mxCell id="msg14-label" value="14: updateStepDisplay()" style="text;html=1;align=center;verticalAlign=middle;whiteSpace=wrap;rounded=0;fontSize=9" vertex="1" parent="1">
          <mxGeometry x="320" y="930" width="120" height="20" as="geometry" />
        </mxCell>

        <!-- 15. Show Step Result -->
        <mxCell id="msg15" style="endArrow=classic;html=1;rounded=0;fontSize=10;dashed=1" edge="1" parent="1">
          <mxGeometry width="50" height="50" relative="1" as="geometry">
            <mxPoint x="290" y="1030" as="sourcePoint" />
            <mxPoint x="115" y="1030" as="targetPoint" />
          </mxGeometry>
        </mxCell>

        <mxCell id="msg15-label" value="15: showStepResult()" style="text;html=1;align=center;verticalAlign=middle;whiteSpace=wrap;rounded=0;fontSize=9" vertex="1" parent="1">
          <mxGeometry x="150" y="1010" width="100" height="20" as="geometry" />
        </mxCell>

        <!-- Student Interaction -->
        <!-- 16. Input Data -->
        <mxCell id="msg16" style="endArrow=classic;html=1;rounded=0;fontSize=10" edge="1" parent="1">
          <mxGeometry width="50" height="50" relative="1" as="geometry">
            <mxPoint x="110" y="1110" as="sourcePoint" />
            <mxPoint x="285" y="1110" as="targetPoint" />
          </mxGeometry>
        </mxCell>

        <mxCell id="msg16-label" value="16: inputData(array)" style="text;html=1;align=center;verticalAlign=middle;whiteSpace=wrap;rounded=0;fontSize=9" vertex="1" parent="1">
          <mxGeometry x="150" y="1090" width="100" height="20" as="geometry" />
        </mxCell>

        <!-- 17. Process Input -->
        <mxCell id="msg17" style="endArrow=classic;html=1;rounded=0;fontSize=10" edge="1" parent="1">
          <mxGeometry width="50" height="50" relative="1" as="geometry">
            <mxPoint x="290" y="1140" as="sourcePoint" />
            <mxPoint x="475" y="1140" as="targetPoint" />
          </mxGeometry>
        </mxCell>

        <mxCell id="msg17-label" value="17: processInput(data)" style="text;html=1;align=center;verticalAlign=middle;whiteSpace=wrap;rounded=0;fontSize=9" vertex="1" parent="1">
          <mxGeometry x="320" y="1120" width="110" height="20" as="geometry" />
        </mxCell>

        <!-- 18. Control Animation -->
        <mxCell id="msg18" style="endArrow=classic;html=1;rounded=0;fontSize=10" edge="1" parent="1">
          <mxGeometry width="50" height="50" relative="1" as="geometry">
            <mxPoint x="110" y="1210" as="sourcePoint" />
            <mxPoint x="285" y="1210" as="targetPoint" />
          </mxGeometry>
        </mxCell>

        <mxCell id="msg18-label" value="18: controlAnimation(action)" style="text;html=1;align=center;verticalAlign=middle;whiteSpace=wrap;rounded=0;fontSize=9" vertex="1" parent="1">
          <mxGeometry x="140" y="1190" width="130" height="20" as="geometry" />
        </mxCell>

        <!-- 19. Update Visualization -->
        <mxCell id="msg19" style="endArrow=classic;html=1;rounded=0;fontSize=10" edge="1" parent="1">
          <mxGeometry width="50" height="50" relative="1" as="geometry">
            <mxPoint x="290" y="1240" as="sourcePoint" />
            <mxPoint x="475" y="1240" as="targetPoint" />
          </mxGeometry>
        </mxCell>

        <mxCell id="msg19-label" value="19: updateVisualization(action)" style="text;html=1;align=center;verticalAlign=middle;whiteSpace=wrap;rounded=0;fontSize=9" vertex="1" parent="1">
          <mxGeometry x="310" y="1220" width="140" height="20" as="geometry" />
        </mxCell>

        <!-- 20. Render Updated Display -->
        <mxCell id="msg20" style="endArrow=classic;html=1;rounded=0;fontSize=10;dashed=1" edge="1" parent="1">
          <mxGeometry width="50" height="50" relative="1" as="geometry">
            <mxPoint x="480" y="1290" as="sourcePoint" />
            <mxPoint x="295" y="1290" as="targetPoint" />
          </mxGeometry>
        </mxCell>

        <mxCell id="msg20-label" value="20: renderUpdatedDisplay()" style="text;html=1;align=center;verticalAlign=middle;whiteSpace=wrap;rounded=0;fontSize=9" vertex="1" parent="1">
          <mxGeometry x="320" y="1270" width="130" height="20" as="geometry" />
        </mxCell>

        <!-- Notes -->
        <mxCell id="note1" value="Note:&#xa;This sequence repeats&#xa;for each algorithm step&#xa;until completion" style="text;html=1;align=left;verticalAlign=top;whiteSpace=wrap;rounded=1;fillColor=#fff2cc;strokeColor=#d6b656;fontSize=10;fontStyle=1" vertex="1" parent="1">
          <mxGeometry x="30" y="1350" width="120" height="60" as="geometry" />
        </mxCell>

        <mxCell id="note2" value="AI Integration:&#xa;Provides real-time&#xa;explanations and&#xa;adaptive learning" style="text;html=1;align=left;verticalAlign=top;whiteSpace=wrap;rounded=1;fillColor=#f8cecc;strokeColor=#b85450;fontSize=10;fontStyle=1" vertex="1" parent="1">
          <mxGeometry x="610" y="1350" width="120" height="60" as="geometry" />
        </mxCell>

        <mxCell id="note3" value="Database Layer:&#xa;Tracks progress,&#xa;saves user data,&#xa;analytics" style="text;html=1;align=left;verticalAlign=top;whiteSpace=wrap;rounded=1;fillColor=#dae8fc;strokeColor=#6c8ebf;fontSize=10;fontStyle=1" vertex="1" parent="1">
          <mxGeometry x="800" y="1350" width="120" height="60" as="geometry" />
        </mxCell>

        <!-- Loop indication -->
        <mxCell id="loop-box" value="loop&#xa;[for each step]" style="rounded=0;whiteSpace=wrap;html=1;fillColor=none;strokeColor=#82b366;strokeWidth=2;dashed=1;fontSize=10;fontStyle=1;verticalAlign=top;align=left" vertex="1" parent="1">
          <mxGeometry x="60" y="610" width="880" height="720" as="geometry" />
        </mxCell>

      </root>
    </mxGraphModel>
  </diagram>
</mxfile>
